<svg width="16" height="16" viewBox="0 0 16 16" fill="none" xmlns="http://www.w3.org/2000/svg">
<rect width="16" height="16" rx="8" fill="black"/>
<path d="M4.44 12.136C4.24267 12.136 4.072 12.096 3.928 12.016C3.784 11.936 3.672 11.824 3.592 11.68C3.512 11.5307 3.472 11.3573 3.472 11.16C3.472 10.872 3.53867 10.6053 3.672 10.36C3.80533 10.1147 3.984 9.888 4.208 9.68C4.43733 9.46667 4.696 9.27467 4.984 9.104C5.27733 8.93333 5.58133 8.77867 5.896 8.64L6.92 5.512C7.01067 5.224 7.02933 5.016 6.976 4.888C6.928 4.75467 6.816 4.688 6.64 4.688C6.544 4.688 6.432 4.71467 6.304 4.768C6.176 4.816 6.032 4.90133 5.872 5.024C5.712 5.14133 5.528 5.30133 5.32 5.504C5.256 5.56267 5.192 5.592 5.128 5.592C5.06933 5.58667 5.00533 5.54933 4.936 5.48C4.872 5.416 4.83733 5.352 4.832 5.288C4.832 5.224 4.86133 5.16 4.92 5.096C5.112 4.888 5.30933 4.70667 5.512 4.552C5.72 4.392 5.928 4.26667 6.136 4.176C6.34933 4.08533 6.55733 4.04 6.76 4.04C7.18133 4.04 7.46667 4.17867 7.616 4.456C7.77067 4.73333 7.76533 5.12533 7.6 5.632L6.712 8.368C7.064 8.23467 7.42133 8.096 7.784 7.952C8.14667 7.80267 8.50933 7.65067 8.872 7.496C9.24 7.336 9.60267 7.18133 9.96 7.032L10.304 5.968C10.4373 5.55733 10.576 5.21333 10.72 4.936C10.864 4.65333 11.032 4.44267 11.224 4.304C11.4213 4.16 11.6587 4.088 11.936 4.088C12.1493 4.088 12.3253 4.13333 12.464 4.224C12.608 4.30933 12.7173 4.42933 12.792 4.584C12.872 4.73333 12.912 4.904 12.912 5.096C12.912 5.34667 12.8453 5.58667 12.712 5.816C12.584 6.04 12.408 6.25333 12.184 6.456C11.96 6.65867 11.704 6.848 11.416 7.024C11.1333 7.2 10.8373 7.36533 10.528 7.52L9.552 10.496C9.47733 10.7147 9.44 10.896 9.44 11.04C9.44 11.184 9.47467 11.2907 9.544 11.36C9.61867 11.4293 9.72533 11.464 9.864 11.464C9.99733 11.464 10.1253 11.4293 10.248 11.36C10.376 11.2853 10.496 11.1867 10.608 11.064C10.72 10.9413 10.8213 10.8107 10.912 10.672C10.9653 10.5867 11.024 10.536 11.088 10.52C11.1573 10.4987 11.2347 10.5093 11.32 10.552C11.4053 10.6 11.456 10.6613 11.472 10.736C11.488 10.8053 11.4693 10.8827 11.416 10.968C11.2987 11.176 11.1547 11.3707 10.984 11.552C10.8187 11.728 10.6347 11.8693 10.432 11.976C10.2293 12.0827 10.0107 12.136 9.776 12.136C9.57333 12.136 9.392 12.096 9.232 12.016C9.07733 11.9413 8.95733 11.8293 8.872 11.68C8.78667 11.5253 8.74133 11.3387 8.736 11.12C8.73067 10.896 8.776 10.6427 8.872 10.36L9.696 7.856C9.43467 7.96267 9.168 8.07467 8.896 8.192C8.624 8.304 8.34667 8.416 8.064 8.528C7.78667 8.64 7.512 8.752 7.24 8.864C6.968 8.97067 6.704 9.072 6.448 9.168L6.088 10.296C5.95467 10.7013 5.81333 11.04 5.664 11.312C5.51467 11.584 5.34133 11.7893 5.144 11.928C4.952 12.0667 4.71733 12.136 4.44 12.136ZM4.504 11.52C4.664 11.52 4.81067 11.4267 4.944 11.24C5.07733 11.0533 5.21067 10.7547 5.344 10.344L5.632 9.48C5.42933 9.576 5.24 9.68267 5.064 9.8C4.888 9.91733 4.73333 10.048 4.6 10.192C4.46667 10.3307 4.36267 10.48 4.288 10.64C4.21333 10.7947 4.176 10.96 4.176 11.136C4.176 11.2533 4.20267 11.3467 4.256 11.416C4.31467 11.4853 4.39733 11.52 4.504 11.52ZM10.808 6.656C11 6.55467 11.1813 6.448 11.352 6.336C11.5227 6.21867 11.672 6.096 11.8 5.968C11.928 5.84 12.0267 5.70667 12.096 5.568C12.1707 5.424 12.208 5.27467 12.208 5.12C12.208 5.008 12.1813 4.91467 12.128 4.84C12.08 4.76 12.0027 4.72 11.896 4.72C11.736 4.72 11.5893 4.81333 11.456 5C11.3227 5.18667 11.184 5.49867 11.04 5.936L10.808 6.656Z" fill="white"/>
</svg>
